HIERARCHY
ROOT Hips
{
	OFFSET 0.000000 71.427986 0.000000
	CHANNELS 6 Xposition Yposition Zposition Xrotation Yrotation Zrotation
	JOINT Pelvis
	{
		OFFSET 0.000000 0.000000 0.000000
		CHANNELS 3 Xrotation Yrotation Zrotation
		JOINT LeftUpLeg
		{
			OFFSET 6.797100 -2.508499 -1.318700
			CHANNELS 3 Xrotation Yrotation Zrotation
			JOINT LeftLeg
			{
				OFFSET 0.069008 -29.241863 0.690200
				CHANNELS 3 Xrotation Yrotation Zrotation
				JOINT LeftFoot
				{
					OFFSET -0.069008 -29.568123 -0.266800
					CHANNELS 3 Xrotation Yrotation Zrotation
					JOINT LeftToeBase
					{
						OFFSET 3.145500 -8.631000 16.059900
						CHANNELS 3 Xrotation Yrotation Zrotation
						End Site
						{
							OFFSET 0.000000 18.501587 0.000000
						}
					}
				}
			}
			JOINT Left_ShortSleeve
			{
				OFFSET 0.265923 -10.480953 1.153800
				CHANNELS 3 Xrotation Yrotation Zrotation
				End Site
				{
					OFFSET 1.725763 19.823879 0.000000
				}
			}
		}
		JOINT RightUpLeg
		{
			OFFSET -6.797100 -2.508499 -1.318700
			CHANNELS 3 Xrotation Yrotation Zrotation
			JOINT RightLeg
			{
				OFFSET -0.082453 -29.241932 0.688000
				CHANNELS 3 Xrotation Yrotation Zrotation
				JOINT RightFoot
				{
					OFFSET 0.082453 -29.568058 -0.264600
					CHANNELS 3 Xrotation Yrotation Zrotation
					JOINT RightToeBase
					{
						OFFSET -3.115300 -8.682800 16.113400
						CHANNELS 3 Xrotation Yrotation Zrotation
						End Site
						{
							OFFSET 0.000000 18.567114 0.000000
						}
					}
				}
			}
			JOINT Right_ShortSleeve
			{
				OFFSET -0.265923 -10.480953 1.153800
				CHANNELS 3 Xrotation Yrotation Zrotation
				End Site
				{
					OFFSET -1.725766 19.823910 0.000000
				}
			}
		}
	}
	JOINT Spine
	{
		OFFSET 0.000000 13.368103 0.470500
		CHANNELS 3 Xrotation Yrotation Zrotation
		JOINT Spine1
		{
			OFFSET 0.147000 13.837402 0.538800
			CHANNELS 3 Xrotation Yrotation Zrotation
			JOINT Spine2
			{
				OFFSET 0.168000 16.242897 -1.435500
				CHANNELS 3 Xrotation Yrotation Zrotation
				JOINT Neck
				{
					OFFSET 0.217200 18.631500 -1.679100
					CHANNELS 3 Xrotation Yrotation Zrotation
					JOINT Head
					{
						OFFSET 0.000000 6.599396 1.385900
						CHANNELS 3 Xrotation Yrotation Zrotation
						JOINT Hat
						{
							OFFSET -0.532200 27.220596 -10.096100
							CHANNELS 3 Xrotation Yrotation Zrotation
							End Site
							{
								OFFSET 0.000000 22.029861 0.000000
							}
						}
						JOINT HairD
						{
							OFFSET -10.777400 17.437393 -1.325900
							CHANNELS 3 Xrotation Yrotation Zrotation
							JOINT HairD1
							{
								OFFSET -3.290299 -11.051193 1.062200
								CHANNELS 3 Xrotation Yrotation Zrotation
								End Site
								{
									OFFSET 0.000000 11.579437 0.000000
								}
							}
						}
						JOINT HairB
						{
							OFFSET -10.777400 17.437393 1.467900
							CHANNELS 3 Xrotation Yrotation Zrotation
							JOINT HairB1
							{
								OFFSET -1.561200 -12.956299 3.590200
								CHANNELS 3 Xrotation Yrotation Zrotation
								End Site
								{
									OFFSET 0.000000 13.534866 0.000000
								}
							}
						}
						JOINT HairA
						{
							OFFSET 9.713100 17.437393 1.467900
							CHANNELS 3 Xrotation Yrotation Zrotation
							JOINT HairA1
							{
								OFFSET 1.561200 -12.956299 3.590200
								CHANNELS 3 Xrotation Yrotation Zrotation
								End Site
								{
									OFFSET 0.000000 13.534866 0.000000
								}
							}
						}
						JOINT HairC
						{
							OFFSET 9.713100 17.437393 -1.325900
							CHANNELS 3 Xrotation Yrotation Zrotation
							JOINT HairC1
							{
								OFFSET 3.290300 -11.051193 1.062200
								CHANNELS 3 Xrotation Yrotation Zrotation
								End Site
								{
									OFFSET 0.000000 11.579437 0.000000
								}
							}
						}
					}
				}
				JOINT LeftShoulder
				{
					OFFSET 5.101800 15.108002 -2.763700
					CHANNELS 3 Xrotation Yrotation Zrotation
					JOINT LeftArm
					{
						OFFSET 9.825497 2.506317 -1.597400
						CHANNELS 3 Xrotation Yrotation Zrotation
						JOINT LeftForeArm
						{
							OFFSET 21.966244 0.000000 0.000000
							CHANNELS 3 Xrotation Yrotation Zrotation
							JOINT LeftHand
							{
								OFFSET 33.879036 0.000000 0.000000
								CHANNELS 3 Xrotation Yrotation Zrotation
								JOINT LeftHandThumb1
								{
									OFFSET 6.715286 -2.359680 3.363841
									CHANNELS 3 Xrotation Yrotation Zrotation
									JOINT LeftHandThumb2
									{
										OFFSET 2.507072 -1.447464 1.447461
										CHANNELS 3 Xrotation Yrotation Zrotation
										JOINT LeftHandThumb3
										{
											OFFSET 2.898338 -1.673355 1.673357
											CHANNELS 3 Xrotation Yrotation Zrotation
											End Site
											{
												OFFSET -0.295959 3.727692 -0.131651
											}
										}
									}
								}
								JOINT LeftHandIndex1
								{
									OFFSET 14.190811 -0.254547 3.840278
									CHANNELS 3 Xrotation Yrotation Zrotation
									JOINT LeftHandIndex2
									{
										OFFSET 3.551727 0.000000 -0.000000
										CHANNELS 3 Xrotation Yrotation Zrotation
										JOINT LeftHandIndex3
										{
											OFFSET 2.894196 0.000000 0.000000
											CHANNELS 3 Xrotation Yrotation Zrotation
											End Site
											{
												OFFSET -1.000603 2.690872 0.366626
											}
										}
									}
								}
								JOINT LeftHandMiddle1
								{
									OFFSET 13.776489 0.000000 0.000000
									CHANNELS 3 Xrotation Yrotation Zrotation
									JOINT LeftHandMiddle2
									{
										OFFSET 3.438232 0.000000 0.000000
										CHANNELS 3 Xrotation Yrotation Zrotation
										JOINT LeftHandMiddle3
										{
											OFFSET 3.691551 0.000000 0.000000
											CHANNELS 3 Xrotation Yrotation Zrotation
											End Site
											{
												OFFSET -1.082298 3.499527 0.457670
											}
										}
									}
								}
								JOINT LeftHandRing1
								{
									OFFSET 13.966164 -0.268127 -3.067488
									CHANNELS 3 Xrotation Yrotation Zrotation
									JOINT LeftHandRing2
									{
										OFFSET 3.162567 0.000000 0.000000
										CHANNELS 3 Xrotation Yrotation Zrotation
										JOINT LeftHandRing3
										{
											OFFSET 3.324348 0.000000 0.000000
											CHANNELS 3 Xrotation Yrotation Zrotation
											End Site
											{
												OFFSET -0.861900 3.184998 0.405154
											}
										}
									}
								}
								JOINT LeftHandPinky1
								{
									OFFSET 13.131393 -0.168503 -5.746925
									CHANNELS 3 Xrotation Yrotation Zrotation
									JOINT LeftHandPinky2
									{
										OFFSET 2.849182 0.000000 0.000000
										CHANNELS 3 Xrotation Yrotation Zrotation
										JOINT LeftHandPinky3
										{
											OFFSET 2.805038 0.000000 0.000000
											CHANNELS 3 Xrotation Yrotation Zrotation
											End Site
											{
												OFFSET -0.882500 2.642609 0.325652
											}
										}
									}
								}
							}
							JOINT Left_Sleeve
							{
								OFFSET 6.592125 -0.646545 0.805568
								CHANNELS 3 Xrotation Yrotation Zrotation
								End Site
								{
									OFFSET -0.000179 20.275787 -0.000000
								}
							}
						}
					}
				}
				JOINT RightShoulder
				{
					OFFSET -5.731700 15.108002 -2.763700
					CHANNELS 3 Xrotation Yrotation Zrotation
					JOINT RightArm
					{
						OFFSET -9.825497 2.506317 -1.597400
						CHANNELS 3 Xrotation Yrotation Zrotation
						JOINT RightForeArm
						{
							OFFSET -21.966242 0.000000 0.000000
							CHANNELS 3 Xrotation Yrotation Zrotation
							JOINT RightHand
							{
								OFFSET -33.879032 0.000000 0.000000
								CHANNELS 3 Xrotation Yrotation Zrotation
								JOINT RightHandThumb1
								{
									OFFSET -6.715286 -2.359680 3.363841
									CHANNELS 3 Xrotation Yrotation Zrotation
									JOINT RightHandThumb2
									{
										OFFSET -2.507072 -1.447464 1.447461
										CHANNELS 3 Xrotation Yrotation Zrotation
										JOINT RightHandThumb3
										{
											OFFSET -2.898338 -1.673355 1.673357
											CHANNELS 3 Xrotation Yrotation Zrotation
											End Site
											{
												OFFSET 0.295959 3.727692 -0.131651
											}
										}
									}
								}
								JOINT RightHandIndex1
								{
									OFFSET -14.190811 -0.254547 3.840278
									CHANNELS 3 Xrotation Yrotation Zrotation
									JOINT RightHandIndex2
									{
										OFFSET -3.551727 0.000000 -0.000000
										CHANNELS 3 Xrotation Yrotation Zrotation
										JOINT RightHandIndex3
										{
											OFFSET -2.894196 0.000000 0.000000
											CHANNELS 3 Xrotation Yrotation Zrotation
											End Site
											{
												OFFSET 1.000603 2.690872 0.366626
											}
										}
									}
								}
								JOINT RightHandMiddle1
								{
									OFFSET -13.776489 0.000000 0.000000
									CHANNELS 3 Xrotation Yrotation Zrotation
									JOINT RightHandMiddle2
									{
										OFFSET -3.438232 0.000000 0.000000
										CHANNELS 3 Xrotation Yrotation Zrotation
										JOINT RightHandMiddle3
										{
											OFFSET -3.691551 0.000000 0.000000
											CHANNELS 3 Xrotation Yrotation Zrotation
											End Site
											{
												OFFSET 1.082298 3.499527 0.457670
											}
										}
									}
								}
								JOINT RightHandRing1
								{
									OFFSET -13.966164 -0.268127 -3.067488
									CHANNELS 3 Xrotation Yrotation Zrotation
									JOINT RightHandRing2
									{
										OFFSET -3.162567 0.000000 0.000000
										CHANNELS 3 Xrotation Yrotation Zrotation
										JOINT RightHandRing3
										{
											OFFSET -3.324348 0.000000 0.000000
											CHANNELS 3 Xrotation Yrotation Zrotation
											End Site
											{
												OFFSET 0.861900 3.184998 0.405154
											}
										}
									}
								}
								JOINT RightHandPinky1
								{
									OFFSET -13.131393 -0.168503 -5.746925
									CHANNELS 3 Xrotation Yrotation Zrotation
									JOINT RightHandPinky2
									{
										OFFSET -2.849182 0.000000 0.000000
										CHANNELS 3 Xrotation Yrotation Zrotation
										JOINT RightHandPinky3
										{
											OFFSET -2.805038 0.000000 0.000000
											CHANNELS 3 Xrotation Yrotation Zrotation
											End Site
											{
												OFFSET 0.882500 2.642609 0.325652
											}
										}
									}
								}
							}
							JOINT Right_Sleeve
							{
								OFFSET -6.592125 -0.646545 0.805568
								CHANNELS 3 Xrotation Yrotation Zrotation
								End Site
								{
									OFFSET 0.000179 20.275787 -0.000000
								}
							}
						}
					}
				}
				JOINT Bind_Right_JacketString
				{
					OFFSET -3.534800 11.969597 7.200700
					CHANNELS 3 Xrotation Yrotation Zrotation
					JOINT Bind_Right_JacketString1
					{
						OFFSET -0.319900 -6.102600 2.794100
						CHANNELS 3 Xrotation Yrotation Zrotation
						End Site
						{
							OFFSET 0.000000 6.719452 0.000000
						}
					}
				}
				JOINT Bind_Left_JacketString
				{
					OFFSET 2.904800 11.969597 7.200700
					CHANNELS 3 Xrotation Yrotation Zrotation
					JOINT Bind_Left_JacketString1
					{
						OFFSET 0.364800 -5.904503 3.186800
						CHANNELS 3 Xrotation Yrotation Zrotation
						End Site
						{
							OFFSET 0.000000 6.719513 0.000000
						}
					}
				}
				JOINT HairE
				{
					OFFSET 5.915200 17.612701 -11.592200
					CHANNELS 3 Xrotation Yrotation Zrotation
					JOINT HairE1
					{
						OFFSET 0.289200 -7.171898 -1.284500
						CHANNELS 3 Xrotation Yrotation Zrotation
						End Site
						{
							OFFSET 0.000000 7.291756 0.000000
						}
					}
				}
				JOINT HairF
				{
					OFFSET -0.864800 17.612701 -11.592200
					CHANNELS 3 Xrotation Yrotation Zrotation
					JOINT HairF1
					{
						OFFSET 0.000000 -14.087097 -2.127501
						CHANNELS 3 Xrotation Yrotation Zrotation
						End Site
						{
							OFFSET 0.000000 14.246841 0.000000
						}
					}
				}
				JOINT HairG
				{
					OFFSET -8.087700 17.612701 -11.592200
					CHANNELS 3 Xrotation Yrotation Zrotation
					JOINT HairG1
					{
						OFFSET -0.293600 -6.081398 -0.910100
						CHANNELS 3 Xrotation Yrotation Zrotation
						End Site
						{
							OFFSET 0.000000 6.156120 0.000000
						}
					}
				}
			}
		}
	}
	JOINT Pouch
	{
		OFFSET 0.000000 4.394501 10.847300
		CHANNELS 3 Xrotation Yrotation Zrotation
		End Site
		{
			OFFSET 0.000000 21.880577 0.000000
		}
	}
	JOINT Bag
	{
		OFFSET -13.229000 4.813004 -0.593300
		CHANNELS 3 Xrotation Yrotation Zrotation
		End Site
		{
			OFFSET 0.000000 21.880577 0.000000
		}
	}
	JOINT OccupyGuyFacialAnim_Joint
	{
		OFFSET 1.000000 -70.206398 -1.655000
		CHANNELS 3 Xrotation Yrotation Zrotation
		End Site
		{
			OFFSET 0.000000 21.880577 0.000000
		}
	}
}
MOTION
Frames: 4
Frame Time: 0.016667
-3.216152 65.167274 -2.767591 -3.164182 -6.175511 5.315017 0.000000 -0.000000 0.000000 -59.826979 5.786961 6.239010 56.434780 -1.228547 -5.121809 -5.396664 0.041703 -0.514427 0.000001 0.000000 0.000000 0.000001 -0.000000 -0.000000 -20.426365 -6.877126 -6.831746 53.440035 7.209187 3.448531 -29.778221 3.297470 -8.741432 -0.000000 -0.000000 0.000000 0.000001 0.000000 -0.000000 13.731955 -0.020350 -4.313220 2.722914 0.133860 -0.943517 2.720029 0.135222 -0.952573 2.743899 0.369061 0.041968 21.918290 4.192717 -0.129341 -0.000002 -0.000000 -0.000000 -0.000002 -0.000000 -0.000000 -0.000002 -0.000000 -0.000000 -0.000002 -0.000000 -0.000000 -0.000005 -0.000000 -0.000000 -0.000002 -0.000000 -0.000000 -0.000005 -0.000000 -0.000000 -0.000002 -0.000000 -0.000000 -0.000002 -0.000000 -0.000000 0.619247 -1.200854 -10.994815 17.248871 -24.148523 -54.371574 -0.000003 -28.855384 -0.000029 24.205873 -0.057578 -1.453777 -13.734211 9.516279 2.120167 12.920948 20.445748 20.805438 0.000000 0.000003 -0.000002 0.624777 4.843206 -25.352339 0.379485 2.075979 -20.715393 -0.000001 0.000000 -0.000000 0.442368 4.431091 -20.811033 0.385155 2.090931 -20.871762 -0.000000 0.000000 0.000001 0.553765 4.704286 -23.698187 0.384480 2.089164 -20.852947 0.000001 -0.000001 0.000004 0.677177 4.972465 -26.586878 0.385162 2.090957 -20.871733 -0.000002 0.000000 -0.000002 0.000003 0.000001 -0.000000 0.265365 6.336857 17.304032 14.561904 17.232531 47.386046 -0.000014 42.148968 0.000027 24.497978 9.178853 9.204403 -13.230998 -9.083802 -4.233053 14.743221 -13.848462 -17.282892 -0.000002 -0.000001 0.000001 0.733530 -4.698527 31.512365 0.755285 -2.544491 33.060161 0.000000 -0.000000 -0.000002 0.728922 -4.705640 31.511337 0.755290 -2.544492 33.059905 -0.000003 0.000002 -0.000002 0.816090 -4.842822 33.512016 0.711546 -2.476080 32.061301 0.000001 -0.000003 0.000003 0.908015 -4.976945 35.513316 0.755272 -2.544499 33.059936 0.000000 0.000000 0.000004 0.000001 -0.000001 -0.000001 -0.000001 -0.000000 0.000000 -0.000001 -0.000000 0.000000 -0.000001 -0.000000 0.000000 -0.000001 -0.000000 0.000000 -0.000001 -0.000000 0.000000 -0.000001 -0.000000 0.000000 -0.000001 -0.000000 0.000000 -0.000001 -0.000000 0.000000 -0.000001 -0.000000 0.000000 -0.000001 -0.000000 0.000000 0.000000 -0.000000 0.000000 0.000000 -0.000000 0.000000 0.000000 -0.000000 0.000000 
-3.264073 64.996887 -2.869069 -3.050221 -6.138324 5.221404 0.000000 -0.000000 -0.000000 -59.260333 5.294359 5.848073 51.840292 -1.332199 -4.848651 -2.369301 -0.002003 0.752520 -0.000001 -0.000000 0.000000 -0.000001 0.000001 -0.000000 -20.947847 -6.946040 -6.709676 54.086342 7.233016 3.441071 -29.997501 3.317444 -8.862719 -0.000000 -0.000000 -0.000000 0.000003 -0.000001 -0.000000 13.851112 0.088105 -4.066761 2.787337 0.158802 -0.935779 2.784214 0.161847 -0.946242 2.763233 0.364234 0.009162 21.835053 4.220364 -0.349116 -0.000004 -0.000000 -0.000000 -0.000004 -0.000000 -0.000000 -0.000004 -0.000000 -0.000000 -0.000004 -0.000000 -0.000000 -0.000006 0.000000 0.000000 -0.000004 -0.000000 -0.000000 -0.000006 0.000000 0.000000 -0.000004 -0.000000 -0.000000 -0.000004 -0.000000 -0.000000 0.629833 -1.288737 -11.002614 17.403967 -24.407275 -54.849219 -0.000010 -28.505422 0.000015 25.130402 -0.221149 -1.029086 -13.734149 9.516080 2.120199 12.920914 20.445872 20.805378 0.000002 0.000005 -0.000002 0.626806 4.847521 -25.401786 0.414670 2.166671 -21.665867 0.000001 0.000000 -0.000002 0.439026 4.422243 -20.716754 0.416235 2.170635 -21.707567 -0.000001 -0.000000 0.000002 0.551157 4.698272 -23.632079 0.415328 2.168376 -21.683648 0.000000 0.000000 -0.000002 0.675535 4.969147 -26.548985 0.416229 2.170654 -21.707562 -0.000002 -0.000001 0.000001 0.000003 0.000000 0.000000 0.222709 6.699103 17.382113 14.920434 17.286562 46.635978 -0.000001 43.116044 0.000001 24.299865 9.494701 9.224544 -13.085066 -9.143567 -3.844988 14.660646 -13.964660 -17.694034 0.000001 0.000000 0.000002 0.754221 -4.732106 32.001492 0.777111 -2.577704 33.548872 -0.000001 -0.000003 -0.000000 0.749936 -4.739703 32.000546 0.777097 -2.577698 33.548691 0.000000 0.000000 -0.000004 0.838292 -4.876142 34.001331 0.732768 -2.509638 32.550038 0.000000 0.000001 -0.000000 0.931367 -5.009467 36.002801 0.777108 -2.577701 33.548694 -0.000003 -0.000003 -0.000003 -0.000001 0.000002 -0.000001 -0.000000 0.000000 -0.000000 -0.000000 -0.000000 -0.000000 -0.000000 0.000000 -0.000000 -0.000000 0.000000 -0.000000 -0.000000 0.000000 -0.000000 -0.000000 -0.000000 -0.000000 -0.000000 0.000000 -0.000000 -0.000000 0.000000 -0.000000 -0.000000 0.000000 -0.000000 -0.000000 -0.000000 -0.000000 0.000000 -0.000000 -0.000000 0.000000 -0.000000 -0.000000 0.000000 -0.000000 -0.000000 
-3.314210 64.839127 -2.983808 -2.873704 -6.202319 5.070926 0.000000 0.000000 -0.000000 -58.548730 4.781993 5.612010 47.283207 -2.032619 -4.478568 1.151531 0.002230 2.170117 0.000000 -0.000000 0.000000 0.000000 0.000000 -0.000000 -21.507164 -7.043205 -6.530770 54.639840 7.364330 3.435151 -30.129460 3.343244 -9.037708 -0.000000 -0.000000 0.000000 -0.000001 0.000000 0.000000 13.966635 0.214918 -3.793957 2.847386 0.187925 -0.917955 2.844043 0.192473 -0.929923 2.777808 0.367201 -0.028368 21.720497 4.314692 -0.575999 -0.000001 -0.000000 -0.000000 -0.000001 -0.000000 -0.000000 -0.000001 -0.000000 -0.000000 -0.000001 -0.000000 -0.000000 -0.000003 0.000000 0.000000 -0.000001 -0.000000 -0.000000 -0.000003 0.000000 0.000000 -0.000001 -0.000000 -0.000000 -0.000001 -0.000000 -0.000000 0.640726 -1.333959 -11.005094 17.374242 -24.472991 -55.481620 -0.000009 -28.210934 -0.000013 25.772448 -0.259540 -0.556250 -13.734067 9.515817 2.120259 12.920891 20.446093 20.805265 -0.000000 -0.000000 -0.000002 0.627455 4.848902 -25.418657 0.447868 2.248427 -22.528208 0.000001 0.000002 -0.000002 0.435051 4.411614 -20.603351 0.446249 2.244527 -22.486733 -0.000000 0.000001 -0.000006 0.547666 4.690258 -23.544193 0.445574 2.242888 -22.469471 -0.000001 0.000002 -0.000001 0.672793 4.963665 -26.486671 0.446248 2.244521 -22.486719 -0.000001 -0.000001 0.000003 -0.000000 0.000001 -0.000001 0.180821 7.065462 17.444803 15.301589 17.417503 45.815034 0.000003 44.069521 0.000005 24.288083 9.779414 9.317249 -12.936539 -9.203456 -3.451729 14.577126 -14.082819 -18.110732 0.000004 0.000000 -0.000001 0.772977 -4.762072 32.439809 0.796943 -2.607324 33.987069 -0.000001 -0.000001 -0.000002 0.769055 -4.770151 32.438986 0.796933 -2.607331 33.986977 0.000001 -0.000001 0.000001 0.858446 -4.905887 34.439931 0.752103 -2.539628 32.988263 0.000001 -0.000000 0.000001 0.952557 -5.038500 36.441504 0.796960 -2.607344 33.986994 -0.000001 0.000000 -0.000001 0.000003 -0.000003 0.000001 -0.000001 -0.000000 -0.000000 -0.000001 0.000001 -0.000000 -0.000001 -0.000000 -0.000000 -0.000001 -0.000000 -0.000000 -0.000001 -0.000000 -0.000000 -0.000001 0.000001 -0.000000 -0.000001 -0.000000 -0.000000 -0.000001 -0.000000 -0.000000 -0.000001 -0.000000 -0.000000 -0.000001 0.000001 -0.000000 0.000000 0.000000 -0.000000 0.000000 0.000000 -0.000000 0.000000 0.000000 -0.000000 
-3.371953 64.716408 -3.121861 -2.611526 -6.309427 4.922924 -0.000000 -0.000000 0.000000 -57.985765 4.283079 5.573601 43.815148 -2.021237 -4.087077 3.587177 0.009033 2.285139 0.000001 0.000000 -0.000000 0.000001 -0.000000 -0.000000 -22.106380 -7.151045 -6.331089 55.035837 7.539077 3.431784 -30.142117 3.364168 -9.240132 0.000000 -0.000000 0.000000 0.000003 0.000000 -0.000000 14.084662 0.342776 -3.563604 2.901654 0.218669 -0.897719 2.898099 0.224246 -0.911137 2.785685 0.373450 -0.062493 21.560418 4.426316 -0.753392 0.000002 0.000000 0.000000 0.000002 0.000000 0.000000 0.000002 0.000000 -0.000000 0.000002 0.000000 -0.000000 0.000002 -0.000000 -0.000000 0.000002 0.000000 -0.000000 0.000002 -0.000000 -0.000000 0.000002 0.000000 0.000000 0.000002 0.000000 0.000000 0.651120 -1.376267 -11.000298 17.231049 -24.456437 -56.127612 0.000000 -27.965516 0.000007 26.138091 -0.195724 -0.169289 -13.733976 9.515492 2.120338 12.920851 20.446340 20.805122 -0.000001 0.000004 -0.000001 0.626469 4.846820 -25.397582 0.478086 2.319894 -23.286463 0.000003 0.000001 -0.000002 0.430223 4.398746 -20.466162 0.475168 2.313101 -23.214092 0.000002 0.000001 -0.000001 0.543125 4.679793 -23.429755 0.474917 2.312487 -23.207603 0.000000 0.000001 -0.000001 0.668750 4.955530 -26.394976 0.475158 2.313102 -23.214082 -0.000000 -0.000001 0.000001 -0.000003 0.000000 -0.000001 0.141483 7.412042 17.493923 15.609463 17.553258 45.040303 0.000008 44.952651 -0.000031 24.556087 10.030619 9.405971 -12.785926 -9.263290 -3.054564 14.492987 -14.202484 -18.531604 0.000001 -0.000001 0.000000 0.789428 -4.787887 32.818987 0.814271 -2.632826 34.366305 0.000001 0.000001 0.000000 0.785825 -4.796423 32.818332 0.814286 -2.632836 34.366343 -0.000001 -0.000003 -0.000001 0.876150 -4.931576 34.819365 0.768988 -2.565425 33.367591 0.000001 -0.000004 -0.000009 0.971149 -5.063534 36.821041 0.814293 -2.632854 34.366350 -0.000004 -0.000003 -0.000003 -0.000002 -0.000001 -0.000001 0.000001 -0.000000 0.000000 0.000002 -0.000000 0.000000 0.000001 -0.000000 0.000000 0.000001 -0.000000 0.000000 0.000001 -0.000000 0.000000 0.000002 -0.000000 0.000000 0.000001 -0.000000 0.000000 0.000001 -0.000000 0.000000 0.000001 -0.000000 0.000000 0.000002 -0.000000 0.000000 -0.000000 -0.000000 0.000000 -0.000000 -0.000000 0.000000 -0.000000 -0.000000 0.000000 
